<svg width="23" height="23" viewBox="0 0 23 23" fill="none" xmlns="http://www.w3.org/2000/svg">
<path d="M11.2645 22.5299C9.03654 22.5299 6.85862 21.8691 5.00616 20.6312C3.15371 19.3934 1.70992 17.634 0.857369 15.5756C0.00482012 13.5172 -0.218199 11.2522 0.216514 9.06701C0.651227 6.88185 1.72415 4.87467 3.2996 3.29928C4.87505 1.72389 6.88228 0.651049 9.06746 0.216425C11.2526 -0.2182 13.5176 0.00491128 15.576 0.857544C17.6344 1.71018 19.3937 3.15404 20.6315 5.00654C21.8693 6.85905 22.5299 9.03699 22.5299 11.265C22.5265 14.2516 21.3384 17.115 19.2265 19.2268C17.1146 21.3387 14.2512 22.5266 11.2645 22.5299ZM11.2645 1.36628C9.30676 1.36637 7.393 1.947 5.76523 3.03474C4.13745 4.12247 2.86879 5.66847 2.11965 7.47723C1.37051 9.28598 1.17455 11.2763 1.55654 13.1964C1.93854 15.1165 2.88133 16.8803 4.26571 18.2646C5.65008 19.6489 7.41386 20.5916 9.33401 20.9735C11.2542 21.3554 13.2444 21.1594 15.0531 20.4101C16.8619 19.6609 18.4078 18.3922 19.4955 16.7643C20.5831 15.1365 21.1637 13.2227 21.1637 11.265C21.1607 8.64053 20.1167 6.12444 18.2609 4.26871C16.4051 2.41299 13.889 1.36918 11.2645 1.36628Z" fill="#9747FF"/>
<path d="M11.2646 17.1719C11.0235 17.1701 10.7929 17.0735 10.6225 16.9031C10.452 16.7327 10.3555 16.502 10.3537 16.261C10.353 16.2013 10.3591 16.1417 10.3719 16.0834C10.3816 16.0239 10.3984 15.9658 10.422 15.9103C10.4465 15.8562 10.4754 15.8043 10.5086 15.755C10.5764 15.6573 10.6612 15.5726 10.759 15.505C10.8069 15.4699 10.8589 15.4408 10.9139 15.4185C10.9695 15.3953 11.0276 15.3785 11.0869 15.3684C11.2336 15.3394 11.3852 15.3471 11.5282 15.3908C11.6712 15.4345 11.8013 15.5128 11.9067 15.6188C11.9508 15.6589 11.9891 15.7049 12.0206 15.7555C12.0537 15.8047 12.0826 15.8567 12.1071 15.9108C12.1307 15.9662 12.1475 16.0243 12.1572 16.0838C12.17 16.1422 12.1761 16.2017 12.1754 16.2615C12.1736 16.5025 12.0771 16.7331 11.9067 16.9035C11.7362 17.074 11.5056 17.1701 11.2646 17.1719ZM7.93995 8.45454C7.82678 8.45403 7.71551 8.42541 7.61613 8.37125C7.51676 8.3171 7.4324 8.23911 7.37063 8.14428C7.30886 8.04946 7.27161 7.94077 7.26224 7.82799C7.25286 7.71521 7.27165 7.60186 7.31692 7.49814C7.35563 7.4107 8.30019 5.35764 11.265 5.35764C11.4462 5.35764 11.62 5.42961 11.7481 5.55772C11.8762 5.68584 11.9482 5.8596 11.9482 6.04078C11.9482 6.22196 11.8762 6.39571 11.7481 6.52383C11.62 6.65194 11.4462 6.72391 11.265 6.72391C9.21969 6.72391 8.58847 8.00594 8.56251 8.06059C8.50657 8.17837 8.4184 8.27789 8.30821 8.34761C8.19803 8.41734 8.07034 8.45441 7.93995 8.45454Z" fill="#9747FF"/>
<path d="M11.2645 14.4074C11.0833 14.4074 10.9096 14.3354 10.7814 14.2073C10.6533 14.0792 10.5814 13.9055 10.5814 13.7243V12.8626C10.5814 11.8101 11.4968 11.229 12.3817 10.6675C13.6364 9.87046 14.3855 9.31484 13.9552 8.03646C13.8732 7.87842 13.2055 6.72437 11.2645 6.72437C11.0833 6.72437 10.9096 6.6524 10.7814 6.52429C10.6533 6.39617 10.5814 6.22241 10.5814 6.04123C10.5814 5.86005 10.6533 5.68629 10.7814 5.55818C10.9096 5.43007 11.0833 5.35809 11.2645 5.35809C14.2293 5.35809 15.1739 7.41207 15.2126 7.4986C15.2203 7.51545 15.2267 7.5323 15.2326 7.54915C16.0724 9.94196 14.2917 11.0719 13.114 11.8197C12.5675 12.1667 11.9476 12.5602 11.9476 12.8617V13.7243C11.9476 13.9055 11.8757 14.0792 11.7476 14.2073C11.6194 14.3354 11.4457 14.4074 11.2645 14.4074Z" fill="#9747FF"/>
</svg>
