<svg width="13" height="15" viewBox="0 0 13 15" fill="none" xmlns="http://www.w3.org/2000/svg">
<path d="M6.5084 4.8C6.26173 4.8 6.05507 4.72333 5.8884 4.57C5.7284 4.41 5.6484 4.21333 5.6484 3.98C5.6484 3.74667 5.7284 3.55333 5.8884 3.4C6.05507 3.24 6.26173 3.16 6.5084 3.16C6.75507 3.16 6.9584 3.24 7.1184 3.4C7.28507 3.55333 7.3684 3.74667 7.3684 3.98C7.3684 4.21333 7.28507 4.41 7.1184 4.57C6.9584 4.72333 6.75507 4.8 6.5084 4.8ZM7.1984 5.46V11H5.7984V5.46H7.1984Z" fill="#BB86FC"/>
<circle cx="6.5" cy="7.5" r="6" stroke="#BB86FC"/>
</svg>
