<svg width="22" height="18" viewBox="0 0 22 18" fill="none" xmlns="http://www.w3.org/2000/svg">
<path d="M17.0729 15.1375C18.2396 13.7279 18.8768 11.9548 18.8743 10.125C18.8743 5.77618 15.3489 2.25076 11 2.25076C6.65118 2.25076 3.12576 5.77618 3.12576 10.125C3.12576 12.0291 3.8022 13.7757 4.92709 15.1375L3.34549 16.7191C3.27587 16.7888 3.22063 16.8714 3.18295 16.9624C3.14527 17.0534 3.12588 17.1509 3.12588 17.2494C3.12588 17.3478 3.14527 17.4453 3.18295 17.5363C3.22063 17.6273 3.27587 17.7099 3.34549 17.7796C3.41512 17.8492 3.49778 17.9044 3.58875 17.9421C3.67972 17.9798 3.77723 17.9992 3.87569 17.9992C3.97416 17.9992 4.07166 17.9798 4.16263 17.9421C4.25361 17.9044 4.33627 17.8492 4.40589 17.7796L5.98749 16.1979C7.34937 17.3228 9.0952 17.9993 11 17.9993C12.9048 17.9993 14.6507 17.3228 16.0125 16.1979L17.5941 17.7796C17.6636 17.8494 17.7462 17.9049 17.8372 17.9427C17.9282 17.9806 18.0258 18.0001 18.1244 18.0001C18.2229 18.0001 18.3205 17.9806 18.4115 17.9427C18.5025 17.9049 18.5851 17.8494 18.6546 17.7796C18.7243 17.71 18.7796 17.6273 18.8173 17.5363C18.855 17.4454 18.8744 17.3478 18.8744 17.2494C18.8744 17.1509 18.855 17.0533 18.8173 16.9624C18.7796 16.8714 18.7243 16.7887 18.6546 16.7191L17.0729 15.1375ZM11 17.2494C7.06514 17.2494 3.87569 14.0599 3.87569 10.125C3.87569 6.19014 7.06514 3.00069 11 3.00069C14.9349 3.00069 18.1244 6.19014 18.1244 10.125C18.1244 14.0599 14.9349 17.2494 11 17.2494Z" fill="#9747FF"/>
<path d="M11 17.9993C6.65793 17.9993 3.12576 14.4671 3.12576 10.125C3.12576 5.78293 6.65793 2.25076 11 2.25076C15.3421 2.25076 18.8743 5.78293 18.8743 10.125C18.8743 14.4671 15.3421 17.9993 11 17.9993ZM11 3.75062C7.4851 3.75062 4.62562 6.6101 4.62562 10.125C4.62562 13.6399 7.4851 16.4994 11 16.4994C14.5149 16.4994 17.3744 13.6399 17.3744 10.125C17.3744 6.6101 14.5149 3.75062 11 3.75062Z" fill="#9747FF"/>
<path d="M2.13961 7.09006C2.31821 6.56449 2.5436 6.056 2.81304 5.5707C2.52786 5.14271 2.37574 4.63989 2.37584 4.12559C2.37584 2.67822 3.55322 1.50084 5.00059 1.50084C5.53454 1.50084 6.03099 1.66282 6.4457 1.93804C6.931 1.6686 7.43949 1.44321 7.96506 1.26461C7.58156 0.865113 7.12127 0.547248 6.61185 0.330101C6.10242 0.112953 5.55436 0.00100425 5.00059 0.000976562C3.9071 0.00236563 2.8588 0.437368 2.08558 1.21058C1.31237 1.9838 0.877366 3.0321 0.875977 4.12559C0.876004 4.67936 0.987953 5.22742 1.2051 5.73685C1.42225 6.24627 1.74011 6.70656 2.13961 7.09006Z" fill="#9747FF"/>
<path d="M11.7499 10.8749H7.62534V9.37507H10.2501V5.25046H11.7499V10.8749Z" fill="#9747FF"/>
<path d="M15.5543 1.93804C15.9823 1.65286 16.4851 1.50074 16.9994 1.50084C18.4468 1.50084 19.6242 2.67822 19.6242 4.12559C19.6242 4.65954 19.4622 5.15599 19.187 5.5707C19.4562 6.05216 19.6789 6.56136 19.8604 7.09006C20.2599 6.70656 20.5778 6.24627 20.7949 5.73685C21.0121 5.22742 21.124 4.67936 21.1241 4.12559C21.1241 1.8518 19.2732 0.000976562 16.9994 0.000976562C16.4457 0.00100425 15.8976 0.112953 15.3882 0.330101C14.8788 0.547248 14.4185 0.865113 14.035 1.26461C14.5637 1.44684 15.0729 1.66957 15.5543 1.93804Z" fill="#9747FF"/>
</svg>
