<svg width="22" height="19" viewBox="0 0 22 19" fill="none" xmlns="http://www.w3.org/2000/svg">
<path d="M0.999977 9.17569C1.16196 9.57388 1.44394 9.70875 1.8459 9.70875C5.25557 9.69805 8.66525 9.70233 12.0749 9.70233H12.3309C12.3529 9.76869 12.3749 9.82864 12.3929 9.88858C12.7609 11.1024 13.8028 11.9224 14.9886 11.9266C16.1585 11.9309 17.2124 11.1196 17.5804 9.91641C17.6324 9.74729 17.6984 9.69591 17.8624 9.69805C19.0103 9.70661 20.1582 9.70447 21.306 9.70233C21.814 9.70233 22.14 9.1971 21.942 8.72397C21.818 8.42426 21.588 8.29795 21.284 8.29795C20.1422 8.30009 19.0023 8.29581 17.8604 8.30437C17.6944 8.30437 17.6304 8.25299 17.5784 8.08387C17.2104 6.88073 16.1565 6.06936 14.9866 6.07578C13.8008 6.08006 12.7589 6.89786 12.3909 8.11384C12.3749 8.1695 12.3569 8.22302 12.3309 8.30009H12.0929C8.67725 8.30009 5.25957 8.30437 1.8439 8.29367C1.44193 8.29367 1.15796 8.42854 0.997978 8.82673V9.17783L0.999977 9.17569ZM13.5768 9.00442C13.5748 8.16522 14.2047 7.48444 14.9886 7.48016C15.7646 7.47588 16.4105 8.16522 16.4145 8.99586C16.4165 9.8265 15.7746 10.518 14.9966 10.5223C14.2167 10.5265 13.5788 9.84362 13.5768 9.00442Z" fill="#9747FF"/>
<path d="M0.999971 15.2342C1.14596 15.6324 1.41393 15.7866 1.81389 15.7823C2.92779 15.7673 4.04168 15.7801 5.15557 15.7737C5.30356 15.7737 5.36356 15.8187 5.41155 15.9749C5.77952 17.1931 6.82742 18.0044 8.0113 18.0023C9.19319 18.0023 10.2371 17.1866 10.5991 15.9621C10.6531 15.778 10.749 15.7759 10.885 15.7759C14.3087 15.7759 17.7324 15.7759 21.1561 15.7759C21.272 15.7759 21.39 15.778 21.502 15.7544C21.782 15.6902 21.994 15.3926 21.996 15.0822C21.996 14.7632 21.796 14.4742 21.51 14.4057C21.398 14.3779 21.28 14.3758 21.1641 14.3758C17.7544 14.3758 14.3447 14.3736 10.933 14.38C10.737 14.38 10.6451 14.3415 10.5751 14.1189C10.2031 12.935 9.15919 12.1579 7.99531 12.16C6.82742 12.1643 5.79951 12.9457 5.42755 14.136C5.36555 14.3372 5.27757 14.3822 5.09558 14.38C4.02968 14.3715 2.96379 14.3886 1.89789 14.3693C1.48993 14.3629 1.17796 14.4742 0.997972 14.8874V15.2385L0.999971 15.2342ZM9.42117 15.0672C9.42517 15.9064 8.79323 16.5915 8.0133 16.5958C7.23338 16.5979 6.58944 15.9193 6.58344 15.0844C6.57744 14.2516 7.21538 13.5644 7.99731 13.5601C8.78723 13.558 9.41717 14.2238 9.42117 15.0672Z" fill="#9747FF"/>
<path d="M0.999664 3.11716C1.17565 3.51749 1.47562 3.64166 1.87758 3.63523C2.97148 3.61811 4.06337 3.63095 5.15727 3.62667C5.28926 3.62667 5.35925 3.65236 5.40524 3.8065C5.77921 5.04603 6.81711 5.84884 8.017 5.84456C9.20488 5.84028 10.2328 5.03533 10.6028 3.80222C10.6547 3.62881 10.7447 3.62667 10.8747 3.62667C14.3184 3.62667 17.7641 3.62667 21.2077 3.62667C21.6277 3.62667 21.8757 3.45755 21.9717 3.11073C22.0837 2.70184 21.8197 2.27582 21.4237 2.23086C21.3297 2.22015 21.2317 2.22229 21.1377 2.22229C17.7421 2.22229 14.3444 2.22229 10.9487 2.22658C10.7467 2.22658 10.6487 2.1859 10.5748 1.95469C10.1988 0.768679 9.14089 -0.0127194 7.969 0.00012549C6.81311 0.0129704 5.78321 0.815777 5.41724 2.00607C5.36525 2.17306 5.30326 2.23086 5.13527 2.22872C4.03538 2.22015 2.93548 2.23514 1.83558 2.21801C1.42962 2.21159 1.14965 2.35717 0.999664 2.76606V3.11716ZM8.011 4.44018C7.22707 4.44232 6.58713 3.76582 6.58313 2.93091C6.57913 2.09813 7.21907 1.40878 7.999 1.4045C8.78292 1.40022 9.41686 2.07458 9.42086 2.91592C9.42486 3.75726 8.79692 4.4359 8.011 4.43804V4.44018Z" fill="#9747FF"/>
</svg>
