<svg width="20" height="20" viewBox="0 0 20 20" fill="none" xmlns="http://www.w3.org/2000/svg">
<path d="M19.7043 18.2851L1.71324 0.293946C1.52503 0.105736 1.26977 -1.98312e-09 1.0036 0C0.737425 1.98312e-09 0.482157 0.105736 0.293946 0.293946C0.105736 0.482157 1.98312e-09 0.737425 0 1.0036C-1.98312e-09 1.26977 0.105736 1.52503 0.293946 1.71324L2.0031 3.4124V16.9957C2.0031 17.7909 2.31902 18.5536 2.88135 19.116C3.44368 19.6783 4.20636 19.9942 5.00162 19.9942H14.9967C15.4605 19.9927 15.9176 19.8835 16.3321 19.6754C16.7466 19.4673 17.1072 19.1659 17.3855 18.7948L18.2851 19.7043C18.378 19.798 18.4885 19.8724 18.6103 19.9231C18.7321 19.9739 18.8628 20 18.9947 20C19.1266 20 19.2573 19.9739 19.3791 19.9231C19.5009 19.8724 19.6114 19.798 19.7043 19.7043C19.798 19.6114 19.8724 19.5009 19.9231 19.3791C19.9739 19.2573 20 19.1266 20 18.9947C20 18.8628 19.9739 18.7321 19.9231 18.6103C19.8724 18.4885 19.798 18.378 19.7043 18.2851ZM14.9967 17.9952H5.00162C4.73653 17.9952 4.48231 17.8899 4.29486 17.7024C4.10742 17.515 4.00211 17.2608 4.00211 16.9957V5.41142L15.9262 17.3355C15.857 17.5271 15.7308 17.6929 15.5647 17.8108C15.3986 17.9287 15.2004 17.9931 14.9967 17.9952ZM6.6608 2.0031H9.99915V5.00162C9.99915 5.79687 10.3151 6.55956 10.8774 7.12189C11.4397 7.68422 12.2024 8.00014 12.9977 8.00014H15.9962V11.3385C15.9962 11.6036 16.1015 11.8578 16.2889 12.0452C16.4764 12.2327 16.7306 12.338 16.9957 12.338C17.2608 12.338 17.515 12.2327 17.7024 12.0452C17.8899 11.8578 17.9952 11.6036 17.9952 11.3385V7.00063C17.9952 7.00063 17.9952 7.00063 17.9952 6.94066C17.9848 6.84884 17.9647 6.75838 17.9352 6.67079V6.58084C17.8872 6.47807 17.8231 6.3836 17.7453 6.30098L11.7483 0.303941C11.6657 0.226196 11.5712 0.162092 11.4684 0.114035H11.3785L11.0586 0.0040896H6.6608C6.39571 0.0040896 6.14148 0.109394 5.95404 0.296838C5.7666 0.484282 5.66129 0.73851 5.66129 1.0036C5.66129 1.26868 5.7666 1.52291 5.95404 1.71035C6.14148 1.8978 6.39571 2.0031 6.6608 2.0031ZM11.9982 3.4124L14.5869 6.00112H12.9977C12.7326 6.00112 12.4784 5.89582 12.2909 5.70838C12.1035 5.52093 11.9982 5.2667 11.9982 5.00162V3.4124Z" fill="#9747FF"/>
</svg>
