<svg width="21" height="21" viewBox="0 0 21 21" fill="none" xmlns="http://www.w3.org/2000/svg">
<path d="M10.25 17.1843C8.97709 17.1843 7.73274 16.8068 6.67434 16.0996C5.61594 15.3924 4.79101 14.3872 4.30388 13.2112C3.81675 12.0352 3.6893 10.7411 3.93763 9.49263C4.18597 8.24416 4.79895 7.09737 5.69904 6.19727C6.59914 5.29718 7.74593 4.6842 8.9944 4.43586C10.2429 4.18753 11.5369 4.31498 12.713 4.80211C13.889 5.28924 14.8942 6.11417 15.6014 7.17257C16.3086 8.23097 16.6861 9.47532 16.6861 10.7482C16.684 12.4546 16.0053 14.0904 14.7988 15.297C13.5922 16.5035 11.9563 17.1823 10.25 17.1843ZM10.25 5.74243C9.25996 5.74243 8.29214 6.03602 7.46893 6.58606C6.64573 7.13611 6.00412 7.91791 5.62525 8.8326C5.24637 9.7473 5.14724 10.7538 5.34039 11.7248C5.53354 12.6959 6.01029 13.5878 6.71037 14.2879C7.41044 14.988 8.3024 15.4647 9.27343 15.6579C10.2445 15.851 11.251 15.7519 12.1657 15.373C13.0803 14.9941 13.8622 14.3525 14.4122 13.5293C14.9622 12.7061 15.2558 11.7383 15.2558 10.7482C15.2543 9.42108 14.7264 8.14872 13.788 7.21027C12.8495 6.27183 11.5772 5.74394 10.25 5.74243Z" fill="#9747FF"/>
<path d="M12.157 11.4634H10.25C10.0603 11.4634 9.87844 11.388 9.74433 11.2539C9.61022 11.1198 9.53488 10.9379 9.53488 10.7482V7.88778C9.53488 7.69812 9.61022 7.51623 9.74433 7.38212C9.87844 7.24801 10.0603 7.17267 10.25 7.17267C10.4397 7.17267 10.6216 7.24801 10.7557 7.38212C10.8898 7.51623 10.9651 7.69812 10.9651 7.88778V10.0331H12.157C12.3466 10.0331 12.5285 10.1085 12.6626 10.2426C12.7967 10.3767 12.8721 10.5586 12.8721 10.7482C12.8721 10.9379 12.7967 11.1198 12.6626 11.2539C12.5285 11.388 12.3466 11.4634 12.157 11.4634Z" fill="#9747FF"/>
<path d="M19.7849 11.4634C19.5952 11.4634 19.4133 11.3881 19.2792 11.254C19.1451 11.1198 19.0698 10.938 19.0698 10.7483C19.0699 9.00384 18.5526 7.29853 17.5835 5.84803C16.6144 4.39754 15.2369 3.26701 13.6252 2.59942C12.0136 1.93183 10.2401 1.75717 8.52921 2.09752C6.81828 2.43788 5.2467 3.27796 4.01323 4.51153C3.71756 4.80761 3.44292 5.12399 3.19133 5.45834C3.07753 5.61007 2.90812 5.71038 2.72037 5.7372C2.53261 5.76402 2.34189 5.71516 2.19016 5.60136C2.03843 5.48757 1.93813 5.31816 1.9113 5.1304C1.88448 4.94265 1.93334 4.75193 2.04714 4.6002C2.33978 4.21354 2.65835 3.84719 3.00063 3.50369C4.43384 2.06987 6.26005 1.09326 8.24831 0.697355C10.2366 0.301452 12.2976 0.504039 14.1707 1.2795C16.0438 2.05496 17.6449 3.36846 18.7715 5.05389C19.8982 6.73933 20.4997 8.721 20.5 10.7483C20.5 10.938 20.4247 11.1198 20.2905 11.254C20.1564 11.3881 19.9745 11.4634 19.7849 11.4634ZM10.25 20.9983C8.90388 20.9985 7.5709 20.7336 6.3272 20.2186C5.0835 19.7035 3.95345 18.9485 3.0016 17.9967C2.04975 17.0448 1.29475 15.9148 0.779725 14.6711C0.264703 13.4274 -0.000250333 12.0944 1.77475e-07 10.7483C1.77475e-07 10.5586 0.0753426 10.3767 0.209453 10.2426C0.343563 10.1085 0.525456 10.0332 0.715116 10.0332C0.904777 10.0332 1.08667 10.1085 1.22078 10.2426C1.35489 10.3767 1.43023 10.5586 1.43023 10.7483C1.43013 12.4928 1.94735 14.1981 2.91647 15.6486C3.88559 17.0991 5.26309 18.2296 6.87475 18.8972C8.48642 19.5648 10.2599 19.7394 11.9708 19.3991C13.6817 19.0587 15.2533 18.2186 16.4868 16.9851C16.7823 16.6895 17.0566 16.3734 17.3077 16.0392C17.4253 15.8983 17.5924 15.8078 17.7747 15.7866C17.957 15.7653 18.1405 15.8149 18.2873 15.925C18.4341 16.0351 18.533 16.1974 18.5637 16.3783C18.5943 16.5592 18.5543 16.745 18.4519 16.8973C18.1596 17.2846 17.8411 17.6513 17.4984 17.9948C16.5487 18.9497 15.4191 19.7068 14.175 20.2224C12.9308 20.7379 11.5967 21.0016 10.25 20.9983Z" fill="#9747FF"/>
<path d="M18.3404 19.5537C18.1507 19.5537 17.9688 19.4784 17.8347 19.3443C17.7006 19.2102 17.6252 19.0283 17.6252 18.8386V16.8573H15.6429C15.4533 16.8573 15.2714 16.7819 15.1373 16.6478C15.0032 16.5137 14.9278 16.3318 14.9278 16.1422C14.9278 15.9525 15.0032 15.7706 15.1373 15.6365C15.2714 15.5024 15.4533 15.427 15.6429 15.427H18.3404C18.53 15.427 18.7119 15.5024 18.846 15.6365C18.9801 15.7706 19.0555 15.9525 19.0555 16.1422V18.8386C19.0555 19.0283 18.9801 19.2102 18.846 19.3443C18.7119 19.4784 18.53 19.5537 18.3404 19.5537ZM4.85613 6.06951H2.15967C1.97001 6.06951 1.78811 5.99416 1.654 5.86005C1.51989 5.72594 1.44455 5.54405 1.44455 5.35439V2.65793C1.44455 2.46827 1.51989 2.28637 1.654 2.15226C1.78811 2.01815 1.97001 1.94281 2.15967 1.94281C2.34933 1.94281 2.53122 2.01815 2.66533 2.15226C2.79944 2.28637 2.87478 2.46827 2.87478 2.65793V4.63927H4.85613C5.04579 4.63927 5.22768 4.71462 5.36179 4.84873C5.4959 4.98284 5.57125 5.16473 5.57125 5.35439C5.57125 5.54405 5.4959 5.72594 5.36179 5.86005C5.22768 5.99416 5.04579 6.06951 4.85613 6.06951Z" fill="#9747FF"/>
</svg>
