<svg width="20" height="18" viewBox="0 0 20 18" fill="none" xmlns="http://www.w3.org/2000/svg">
<path fill-rule="evenodd" clip-rule="evenodd" d="M10 17.5C14.9707 17.5 19 13.6946 19 9C19 4.30545 14.9707 0.5 10 0.5C5.0293 0.5 1 4.30545 1 9C1 13.6946 5.0293 17.5 10 17.5ZM9.1 5.6C9.1 5.37457 9.19482 5.15837 9.3636 4.99896C9.53239 4.83955 9.76131 4.75 10 4.75C10.2387 4.75 10.4676 4.83955 10.6364 4.99896C10.8052 5.15837 10.9 5.37457 10.9 5.6V7.3V9C10.9 9.22543 10.8052 9.44164 10.6364 9.60104C10.4676 9.76045 10.2387 9.85 10 9.85C9.76131 9.85 9.53239 9.76045 9.3636 9.60104C9.19482 9.44164 9.1 9.22543 9.1 9V5.6ZM10.9 12.4C10.9 12.6254 10.8052 12.8416 10.6364 13.001C10.4676 13.1604 10.2387 13.25 10 13.25C9.76131 13.25 9.53239 13.1604 9.3636 13.001C9.19482 12.8416 9.1 12.6254 9.1 12.4C9.1 12.1746 9.19482 11.9584 9.3636 11.799C9.53239 11.6396 9.76131 11.55 10 11.55C10.2387 11.55 10.4676 11.6396 10.6364 11.799C10.8052 11.9584 10.9 12.1746 10.9 12.4Z" stroke="#D9D9D9"/>
</svg>
