<svg width="24" height="19" viewBox="0 0 24 19" fill="none" xmlns="http://www.w3.org/2000/svg">
<path d="M4.7619 1.75V6.91526C4.7619 10.6372 7.7389 13.7222 11.4607 13.7498C12.3514 13.7566 13.2347 13.587 14.0595 13.2508C14.8844 12.9146 15.6345 12.4185 16.2667 11.791C16.899 11.1636 17.4008 10.4172 17.7432 9.59493C18.0856 8.77265 18.2619 7.89073 18.2619 7V1.75C18.2619 1.55109 18.1829 1.36032 18.0422 1.21967C17.9016 1.07902 17.7108 1 17.5119 1H5.5119C5.31299 1 5.12222 1.07902 4.98157 1.21967C4.84092 1.36032 4.7619 1.55109 4.7619 1.75Z" stroke="#D9D9D9" stroke-width="2" stroke-linecap="round" stroke-linejoin="round"/>
<path d="M8.5119 17.5H14.5119" stroke="#D9D9D9" stroke-width="2" stroke-linecap="round" stroke-linejoin="round"/>
<path d="M11.5119 13.75V17.5" stroke="#D9D9D9" stroke-width="2" stroke-linecap="round" stroke-linejoin="round"/>
<path d="M18.0946 8.5H19.0119C19.8076 8.5 20.5706 8.18393 21.1332 7.62132C21.6958 7.05871 22.0119 6.29565 22.0119 5.5V4C22.0119 3.80109 21.9329 3.61032 21.7922 3.46967C21.6516 3.32902 21.4608 3.25 21.2619 3.25H18.2619M4.94604 8.5H4C3.20435 8.5 2.44129 8.18393 1.87868 7.62132C1.31607 7.05871 1 6.29565 1 5.5V4C1 3.80109 1.07902 3.61032 1.21967 3.46967C1.36032 3.32902 1.55109 3.25 1.75 3.25H4.75" stroke="#D9D9D9" stroke-width="2" stroke-linecap="round" stroke-linejoin="round"/>
</svg>
