<svg width="18" height="17" viewBox="0 0 18 17" fill="none" xmlns="http://www.w3.org/2000/svg">
<path fill-rule="evenodd" clip-rule="evenodd" d="M9 17C13.9707 17 18 13.1946 18 8.5C18 3.80545 13.9707 0 9 0C4.0293 0 0 3.80545 0 8.5C0 13.1946 4.0293 17 9 17ZM8.1 5.1C8.1 4.87457 8.19482 4.65837 8.3636 4.49896C8.53239 4.33955 8.7613 4.25 9 4.25C9.2387 4.25 9.46761 4.33955 9.6364 4.49896C9.80518 4.65837 9.9 4.87457 9.9 5.1V6.8V8.5C9.9 8.72543 9.80518 8.94164 9.6364 9.10104C9.46761 9.26045 9.2387 9.35 9 9.35C8.7613 9.35 8.53239 9.26045 8.3636 9.10104C8.19482 8.94164 8.1 8.72543 8.1 8.5V5.1ZM9.9 11.9C9.9 12.1254 9.80518 12.3416 9.6364 12.501C9.46761 12.6604 9.2387 12.75 9 12.75C8.7613 12.75 8.53239 12.6604 8.3636 12.501C8.19482 12.3416 8.1 12.1254 8.1 11.9C8.1 11.6746 8.19482 11.4584 8.3636 11.299C8.53239 11.1396 8.7613 11.05 9 11.05C9.2387 11.05 9.46761 11.1396 9.6364 11.299C9.80518 11.4584 9.9 11.6746 9.9 11.9Z" fill="url(#paint0_linear_6_352)"/>
<defs>
<linearGradient id="paint0_linear_6_352" x1="0.225856" y1="-1.9851e-06" x2="21.4291" y2="5.69824" gradientUnits="userSpaceOnUse">
<stop stop-color="#BB86FC"/>
<stop offset="1" stop-color="#6300DC"/>
</linearGradient>
</defs>
</svg>
