<svg width="19" height="19" viewBox="0 0 19 19" fill="none" xmlns="http://www.w3.org/2000/svg">
<path d="M9.02336 18.0465C10.808 18.0465 12.5525 17.5173 14.0364 16.5259C15.5203 15.5344 16.6768 14.1251 17.3598 12.4763C18.0427 10.8275 18.2214 9.01326 17.8732 7.26292C17.5251 5.51258 16.6657 3.90479 15.4038 2.64286C14.1418 1.38093 12.5341 0.521549 10.7837 0.173384C9.03337 -0.174781 7.21909 0.00390961 5.5703 0.68686C3.92151 1.36981 2.51227 2.52634 1.52078 4.01021C0.529291 5.49408 8.58307e-05 7.23864 8.58307e-05 9.02328C8.58307e-05 11.4164 0.950748 13.7115 2.64294 15.4037C4.33513 17.0959 6.63024 18.0465 9.02336 18.0465ZM9.02336 1.12791C10.5849 1.12791 12.1114 1.59097 13.4098 2.45852C14.7082 3.32607 15.7201 4.55916 16.3177 6.00185C16.9153 7.44454 17.0717 9.03203 16.767 10.5636C16.4624 12.0951 15.7104 13.502 14.6062 14.6061C13.502 15.7103 12.0952 16.4623 10.5637 16.7669C9.03211 17.0716 7.44462 16.9152 6.00193 16.3176C4.55924 15.7201 3.32616 14.7081 2.4586 13.4097C1.59105 12.1113 1.12799 10.5848 1.12799 9.02328C1.12799 6.92929 1.95983 4.92108 3.44049 3.44041C4.92116 1.95974 6.92938 1.12791 9.02336 1.12791Z" fill="#FFE100"/>
<path d="M6.76761 11.8431H11.2792C11.4288 11.8431 11.5723 11.9025 11.678 12.0083C11.7838 12.114 11.8432 12.2575 11.8432 12.407C11.8432 12.5566 11.7838 12.7 11.678 12.8058C11.5723 12.9116 11.4288 12.971 11.2792 12.971H6.76761C6.61804 12.971 6.4746 12.9116 6.36883 12.8058C6.26307 12.7 6.20366 12.5566 6.20366 12.407C6.20366 12.2575 6.26307 12.114 6.36883 12.0083C6.4746 11.9025 6.61804 11.8431 6.76761 11.8431Z" fill="#FFE100"/>
<path d="M6.20365 7.89537C5.58072 7.89537 5.07574 7.39039 5.07574 6.76747C5.07574 6.14454 5.58072 5.63956 6.20365 5.63956C6.82658 5.63956 7.33156 6.14454 7.33156 6.76747C7.33156 7.39039 6.82658 7.89537 6.20365 7.89537Z" fill="#FFE100"/>
<path d="M11.8432 7.89537C11.2203 7.89537 10.7153 7.39039 10.7153 6.76747C10.7153 6.14454 11.2203 5.63956 11.8432 5.63956C12.4661 5.63956 12.9711 6.14454 12.9711 6.76747C12.9711 7.39039 12.4661 7.89537 11.8432 7.89537Z" fill="#FFE100"/>
</svg>
