<svg width="19" height="19" viewBox="0 0 19 19" fill="none" xmlns="http://www.w3.org/2000/svg">
<path d="M9.02336 18.0465C10.808 18.0465 12.5525 17.5173 14.0364 16.5259C15.5203 15.5344 16.6768 14.1251 17.3598 12.4763C18.0427 10.8275 18.2214 9.01326 17.8732 7.26292C17.5251 5.51258 16.6657 3.90479 15.4038 2.64286C14.1418 1.38093 12.5341 0.521549 10.7837 0.173384C9.03337 -0.174781 7.21909 0.00390961 5.5703 0.68686C3.92151 1.36981 2.51227 2.52634 1.52078 4.01021C0.529291 5.49408 8.58307e-05 7.23864 8.58307e-05 9.02328C8.58307e-05 11.4164 0.950748 13.7115 2.64294 15.4037C4.33513 17.0959 6.63024 18.0465 9.02336 18.0465ZM9.02336 1.12791C10.5849 1.12791 12.1114 1.59097 13.4098 2.45852C14.7082 3.32607 15.7201 4.55916 16.3177 6.00185C16.9153 7.44454 17.0717 9.03203 16.767 10.5636C16.4624 12.0951 15.7104 13.502 14.6062 14.6061C13.502 15.7103 12.0952 16.4623 10.5637 16.7669C9.03211 17.0716 7.44462 16.9152 6.00193 16.3176C4.55924 15.7201 3.32616 14.7081 2.4586 13.4097C1.59105 12.1113 1.12799 10.5848 1.12799 9.02328C1.12799 6.92929 1.95983 4.92108 3.44049 3.44041C4.92116 1.95974 6.92938 1.12791 9.02336 1.12791Z" fill="#3EC500"/>
<path d="M9.02333 14.6629C9.92075 14.6629 10.7814 14.3064 11.416 13.6718C12.0506 13.0372 12.4071 12.1766 12.4071 11.2791C12.4071 11.1296 12.3476 10.9861 12.2419 10.8804C12.1361 10.7746 11.9927 10.7152 11.8431 10.7152H6.20356C6.05399 10.7152 5.91055 10.7746 5.80478 10.8804C5.69902 10.9861 5.63961 11.1296 5.63961 11.2791C5.63961 12.1766 5.9961 13.0372 6.63068 13.6718C7.26525 14.3064 8.12591 14.6629 9.02333 14.6629ZM11.2058 11.8431C11.0797 12.3258 10.797 12.7531 10.4021 13.0581C10.0072 13.363 9.52229 13.5285 9.02333 13.5285C8.52437 13.5285 8.03949 13.363 7.64458 13.0581C7.24966 12.7531 6.967 12.3258 6.84083 11.8431H11.2058Z" fill="#3EC500"/>
<path d="M12.4071 7.89539C12.5566 7.89539 12.7001 7.83598 12.8058 7.73022C12.9116 7.62445 12.971 7.48101 12.971 7.33144V5.63958C12.971 5.49001 12.9116 5.34656 12.8058 5.2408C12.7001 5.13504 12.5566 5.07562 12.4071 5.07562C12.2575 5.07562 12.1141 5.13504 12.0083 5.2408C11.9025 5.34656 11.8431 5.49001 11.8431 5.63958V7.33144C11.8431 7.48101 11.9025 7.62445 12.0083 7.73022C12.1141 7.83598 12.2575 7.89539 12.4071 7.89539ZM5.63962 7.89539C5.78919 7.89539 5.93263 7.83598 6.03839 7.73022C6.14415 7.62445 6.20357 7.48101 6.20357 7.33144V5.63958C6.20357 5.49001 6.14415 5.34656 6.03839 5.2408C5.93263 5.13504 5.78919 5.07562 5.63962 5.07562C5.49005 5.07562 5.3466 5.13504 5.24084 5.2408C5.13508 5.34656 5.07566 5.49001 5.07566 5.63958V7.33144C5.07566 7.48101 5.13508 7.62445 5.24084 7.73022C5.3466 7.83598 5.49005 7.89539 5.63962 7.89539Z" fill="#3EC500"/>
</svg>
