<svg width="19" height="19" viewBox="0 0 19 19" fill="none" xmlns="http://www.w3.org/2000/svg">
<path d="M9.02336 18.0465C10.808 18.0465 12.5525 17.5173 14.0364 16.5259C15.5203 15.5344 16.6768 14.1251 17.3598 12.4763C18.0427 10.8275 18.2214 9.01326 17.8732 7.26292C17.5251 5.51258 16.6657 3.90479 15.4038 2.64286C14.1418 1.38093 12.5341 0.521549 10.7837 0.173384C9.03337 -0.174781 7.21909 0.00390961 5.5703 0.68686C3.92151 1.36981 2.51227 2.52634 1.52078 4.01021C0.529291 5.49408 8.58307e-05 7.23864 8.58307e-05 9.02328C8.58307e-05 11.4164 0.950748 13.7115 2.64294 15.4037C4.33513 17.0959 6.63024 18.0465 9.02336 18.0465ZM9.02336 1.12791C10.5849 1.12791 12.1114 1.59097 13.4098 2.45852C14.7082 3.32607 15.7201 4.55916 16.3177 6.00185C16.9153 7.44454 17.0717 9.03203 16.767 10.5636C16.4624 12.0951 15.7104 13.502 14.6062 14.6061C13.502 15.7103 12.0952 16.4623 10.5637 16.7669C9.03211 17.0716 7.44462 16.9152 6.00193 16.3176C4.55924 15.7201 3.32616 14.7081 2.4586 13.4097C1.59105 12.1113 1.12799 10.5848 1.12799 9.02328C1.12799 6.92929 1.95983 4.92108 3.44049 3.44041C4.92116 1.95974 6.92938 1.12791 9.02336 1.12791Z" fill="#FF7700"/>
<path d="M6.20348 13.5011C6.30341 13.5009 6.4015 13.4742 6.48771 13.4237C6.57392 13.3731 6.64515 13.3006 6.69412 13.2135C6.92431 12.7974 7.26175 12.4506 7.67135 12.2091C8.08095 11.9676 8.54776 11.8403 9.02325 11.8403C9.49874 11.8403 9.96555 11.9676 10.3751 12.2091C10.7847 12.4506 11.1222 12.7974 11.3524 13.2135C11.3894 13.2779 11.4388 13.3344 11.4976 13.3798C11.5565 13.4251 11.6237 13.4584 11.6955 13.4778C11.8404 13.5169 11.9949 13.4969 12.125 13.4221C12.2551 13.3473 12.3502 13.2239 12.3893 13.079C12.4285 12.9341 12.4084 12.7796 12.3337 12.6495C12.0063 12.0584 11.5266 11.5657 10.9445 11.2226C10.3624 10.8796 9.69896 10.6986 9.02325 10.6986C8.34754 10.6986 7.68415 10.8796 7.102 11.2226C6.51986 11.5657 6.04019 12.0584 5.71284 12.6495C5.63978 12.7797 5.62131 12.9335 5.66148 13.0773C5.70165 13.2211 5.79718 13.343 5.92714 13.4165C6.01104 13.4667 6.10587 13.4957 6.20348 13.5011Z" fill="#FF7700"/>
<path d="M6.20357 7.89538C6.42665 7.89538 6.64472 7.82922 6.8302 7.70529C7.01569 7.58135 7.16025 7.4052 7.24562 7.1991C7.33099 6.993 7.35333 6.76622 7.30981 6.54742C7.26629 6.32863 7.15886 6.12766 7.00112 5.96991C6.84338 5.81217 6.64241 5.70475 6.42361 5.66123C6.20482 5.61771 5.97804 5.64005 5.77194 5.72541C5.56584 5.81078 5.38969 5.95535 5.26575 6.14083C5.14181 6.32632 5.07566 6.54439 5.07566 6.76747C5.07566 7.06661 5.1945 7.35349 5.40602 7.56502C5.61754 7.77654 5.90443 7.89538 6.20357 7.89538ZM11.8431 7.89538C12.0662 7.89538 12.2843 7.82922 12.4697 7.70529C12.6552 7.58135 12.7998 7.4052 12.8852 7.1991C12.9705 6.993 12.9929 6.76622 12.9494 6.54742C12.9058 6.32863 12.7984 6.12766 12.6407 5.96991C12.4829 5.81217 12.282 5.70475 12.0632 5.66123C11.8444 5.61771 11.6176 5.64005 11.4115 5.72541C11.2054 5.81078 11.0292 5.95535 10.9053 6.14083C10.7814 6.32632 10.7152 6.54439 10.7152 6.76747C10.7152 7.06661 10.834 7.35349 11.0456 7.56502C11.2571 7.77654 11.544 7.89538 11.8431 7.89538Z" fill="#FF7700"/>
</svg>
