<svg width="16" height="18" viewBox="0 0 16 18" fill="none" xmlns="http://www.w3.org/2000/svg">
<path d="M8.30835 17.6296C8.63622 17.5843 8.96634 17.5459 9.2942 17.4916C10.0675 17.3695 10.8137 17.1434 11.5282 16.8291C12.1319 16.5623 12.4259 16.0626 12.4372 15.4091C12.4485 14.819 12.4394 14.2266 12.4394 13.6364C12.4394 13.5731 12.4394 13.512 12.4394 13.4465C12.7334 13.3945 13.0228 13.3583 13.3032 13.2882C14.4654 12.992 15.3744 11.9338 15.51 10.7422C15.562 10.2967 15.5213 9.86259 15.4038 9.43071C15.3744 9.3267 15.3902 9.2046 15.4105 9.09607C16.159 5.02831 13.5067 1.06456 9.44118 0.178195C5.2988 -0.723993 1.18581 1.8876 0.242924 6.02094C0.000983238 7.08141 -0.00806141 8.1464 0.190917 9.21365C0.206745 9.29279 0.197701 9.38549 0.17509 9.46237C-0.315575 11.1288 0.640882 12.8473 2.31864 13.2905C2.58319 13.3605 2.85678 13.3899 3.14621 13.4419C3.14621 13.6477 3.14621 13.8648 3.14621 14.0796C3.14621 14.5092 3.14621 14.9411 3.14621 15.3707C3.15073 16.0965 3.52608 16.6234 4.19763 16.8902C5.15182 17.2655 6.13315 17.5255 7.1597 17.5979C7.19814 17.6002 7.23658 17.616 7.27502 17.625H8.30835V17.6296ZM5.21287 16.1553C5.02746 16.0897 4.86014 16.0332 4.69508 15.9744C4.2519 15.8184 4.17728 15.7099 4.17728 15.2463C4.17728 14.5002 4.17728 13.754 4.17728 13.0101C4.17728 12.4991 3.94664 12.3046 3.44468 12.3702C2.99697 12.4267 2.56284 12.3543 2.16262 12.1395C1.27626 11.667 0.880561 10.6902 1.18355 9.72466C1.25365 9.50533 1.25817 9.29279 1.22199 9.06667C1.15868 8.68907 1.09763 8.30694 1.08858 7.92481C1.05014 6.52743 1.40966 5.23407 2.18297 4.06733C3.07837 2.71744 4.30616 1.7949 5.85277 1.32006C7.10996 0.933411 8.38749 0.924366 9.65146 1.29745C11.3518 1.79942 12.6678 2.82145 13.5745 4.34319C14.3523 5.64559 14.6395 7.06332 14.4428 8.57149C14.3817 9.03502 14.2393 9.49403 14.4631 9.95303C14.4835 9.996 14.4744 10.0548 14.4812 10.1068C14.6078 10.957 14.1036 11.8569 13.3145 12.1915C12.9097 12.3634 12.4914 12.4244 12.055 12.3589C11.8131 12.3227 11.6005 12.377 11.483 12.6053C11.431 12.7071 11.4129 12.836 11.4129 12.9535C11.4061 13.7517 11.4084 14.5476 11.4129 15.3458C11.4129 15.5606 11.3586 15.7573 11.1596 15.8546C10.9154 15.9744 10.6554 16.0626 10.375 16.1734C10.375 15.7845 10.3773 15.4295 10.375 15.0767C10.3728 14.7557 10.1534 14.5295 9.85722 14.5295C9.5678 14.5295 9.35525 14.7489 9.34847 15.0677C9.34169 15.3956 9.34847 15.7212 9.34847 16.049C9.34847 16.1734 9.34847 16.2977 9.34847 16.4357C8.99573 16.4854 8.66335 16.5329 8.31288 16.5804C8.31288 16.4899 8.31288 16.4266 8.31288 16.3656C8.31288 15.936 8.31288 15.5041 8.31288 15.0745C8.31288 14.8619 8.22695 14.6946 8.03928 14.5929C7.68654 14.4007 7.29311 14.6449 7.28632 15.0677C7.27728 15.5041 7.28632 15.9405 7.28632 16.3746C7.28632 16.4357 7.28632 16.4945 7.28632 16.5759C6.92228 16.5284 6.5899 16.4832 6.25073 16.4379C6.25073 16.352 6.25073 16.2887 6.25073 16.2277C6.25073 15.832 6.25525 15.4363 6.24847 15.0406C6.24395 14.7534 6.02236 14.5386 5.7465 14.5295C5.47064 14.5228 5.25131 14.724 5.22418 15.018C5.2174 15.0926 5.22192 15.1672 5.22192 15.2418C5.22192 15.538 5.22192 15.8365 5.22192 16.153L5.21287 16.1553Z" fill="#F30000"/>
<path d="M10.8906 11.3617C12.3106 11.3617 13.475 10.195 13.4705 8.775C13.4682 7.35502 12.2992 6.1928 10.8793 6.19958C9.4638 6.20637 8.30836 7.36406 8.30836 8.77727C8.30836 10.1973 9.47058 11.3617 10.8906 11.3617ZM10.8906 7.2284C11.7407 7.2284 12.444 7.93387 12.4417 8.78405C12.4394 9.62971 11.7453 10.3261 10.8973 10.3307C10.0472 10.3352 9.33943 9.63423 9.33717 8.78405C9.33491 7.93387 10.0381 7.2284 10.8883 7.2284H10.8906Z" fill="#F30000"/>
<path d="M2.11287 8.77951C2.11287 10.1995 3.27735 11.364 4.69734 11.3617C6.11732 11.3617 7.27954 10.1927 7.27728 8.77273C7.27276 7.35727 6.11732 6.20183 4.70186 6.19731C3.28187 6.19279 2.11513 7.35727 2.11513 8.77725L2.11287 8.77951ZM3.14168 8.77499C3.14621 7.92255 3.85394 7.2216 4.70412 7.23064C5.54978 7.23743 6.24395 7.93611 6.24395 8.77951C6.24395 9.6297 5.54074 10.3352 4.69055 10.3329C3.83811 10.3329 3.13716 9.62517 3.14168 8.77499Z" fill="#F30000"/>
<path d="M7.79735 13.4284C8.11843 13.4284 8.43951 13.4284 8.76059 13.4284C9.00705 13.4284 9.19925 13.3402 9.29873 13.1073C9.3937 12.8789 9.32361 12.6822 9.15628 12.5126C8.83294 12.187 8.51186 11.8614 8.184 11.5403C7.9398 11.3007 7.65264 11.2984 7.40843 11.5358C7.08057 11.8569 6.75949 12.1825 6.43615 12.5081C6.26431 12.6822 6.18969 12.8835 6.2937 13.1163C6.39319 13.3402 6.58086 13.4306 6.82054 13.4284C7.14614 13.4284 7.47401 13.4284 7.79961 13.4284H7.79735Z" fill="#F30000"/>
</svg>
