<svg width="22" height="22" viewBox="0 0 22 22" fill="none" xmlns="http://www.w3.org/2000/svg">
<path d="M8.80004 18.6999C7.34188 18.6982 5.94396 18.1182 4.91289 17.0871C3.88182 16.056 3.3018 14.6581 3.30005 13.2V5.49999C3.3018 4.04183 3.88182 2.64391 4.91289 1.61284C5.94396 0.581769 7.34188 0.00174664 8.80004 0H16.5C17.9582 0.00174664 19.3561 0.581769 20.3872 1.61284C21.4182 2.64391 21.9983 4.04183 22 5.49999V13.2C21.9983 14.6581 21.4182 16.056 20.3872 17.0871C19.3561 18.1182 17.9582 18.6982 16.5 18.6999H8.80004ZM19.8 13.2V5.49999C19.7991 4.62504 19.4512 3.78618 18.8325 3.1675C18.2138 2.54882 17.375 2.20087 16.5 2.19999H8.80004C7.92509 2.20087 7.08623 2.54882 6.46755 3.1675C5.84888 3.78618 5.50092 4.62504 5.50004 5.49999V13.2C5.50092 14.0749 5.84888 14.9138 6.46755 15.5324C7.08623 16.1511 7.92509 16.4991 8.80004 16.5H16.5C17.375 16.4991 18.2138 16.1511 18.8325 15.5324C19.4512 14.9138 19.7991 14.0749 19.8 13.2Z" fill="#9747FF"/>
<path d="M2.19999 6.6V13.2C2.20203 14.9498 2.89804 16.6273 4.13533 17.8646C5.37263 19.1019 7.05018 19.7979 8.79997 19.8H15.4C15.6917 19.8 15.9715 19.9159 16.1778 20.1221C16.3841 20.3284 16.5 20.6082 16.5 20.9C16.5 21.1917 16.3841 21.4715 16.1778 21.6778C15.9715 21.8841 15.6917 22 15.4 22H8.79997C6.46697 21.997 4.23035 21.069 2.58067 19.4193C0.930981 17.7696 0.00290871 15.533 -1.90735e-06 13.2V6.6C-1.90735e-06 6.30826 0.115889 6.02847 0.322178 5.82218C0.528467 5.61589 0.808258 5.5 1.09999 5.5C1.39173 5.5 1.67152 5.61589 1.87781 5.82218C2.0841 6.02847 2.19999 6.30826 2.19999 6.6ZM13.6191 12.5576L8.05308 7.40739C7.84373 7.20813 7.72122 6.93447 7.71204 6.64559C7.70285 6.35672 7.80773 6.07583 8.004 5.86367C8.20026 5.6515 8.47215 5.52511 8.76086 5.51181C9.04958 5.49851 9.33193 5.59938 9.54687 5.7926L14.2032 10.1002L15.609 8.15539C15.7826 7.92633 16.0391 7.77436 16.3234 7.73201C16.6077 7.68965 16.8973 7.76028 17.1302 7.92878C17.3631 8.09727 17.5208 8.35024 17.5696 8.63354C17.6183 8.91684 17.5542 9.20796 17.391 9.44459L15.257 12.3948C15.1658 12.5208 15.0489 12.626 14.914 12.7036C14.7792 12.7811 14.6294 12.8291 14.4746 12.8445C14.3198 12.8599 14.1635 12.8423 14.0161 12.7928C13.8686 12.7434 13.7333 12.6632 13.6191 12.5576Z" fill="#9747FF"/>
</svg>
