<svg width="20" height="19" viewBox="0 0 20 19" fill="none" xmlns="http://www.w3.org/2000/svg">
<path d="M16.9144 16.8224H10.8266C10.4321 16.8224 10.1123 16.5026 10.1123 16.1081C10.1123 15.7136 10.4321 15.3938 10.8266 15.3938H16.9144C17.8282 15.3938 18.5714 14.6537 18.5714 13.7438V6.14748H4.60374V7.34447C4.60374 7.73893 4.28392 8.05876 3.88945 8.05876C3.49499 8.05876 3.17517 7.73893 3.17517 7.34447V4.24388C3.17517 2.54256 4.55945 1.15828 6.26077 1.15828H7.02563V0.714288C7.02563 0.319825 7.34545 0 7.73991 0C8.13438 0 8.4542 0.319825 8.4542 0.714288V1.15828H14.7227V0.714288C14.7227 0.319825 15.0425 0 15.437 0C15.8315 0 16.1513 0.319825 16.1513 0.714288V1.15828H16.9144C17.978 1.15828 18.9176 1.69931 19.4726 2.52054C19.8054 3.01271 20 3.60562 20 4.24318V13.7438C20 15.4412 18.6157 16.8224 16.9144 16.8224ZM4.60549 4.71891H18.5714V4.24388C18.5714 4.01556 18.525 3.79793 18.4412 3.59987C18.1896 3.00643 17.6012 2.58895 16.9172 2.58895H16.1513V3.03503C16.1513 3.42949 15.8315 3.74932 15.437 3.74932C15.0425 3.74932 14.7227 3.42949 14.7227 3.03503V2.58895H8.4542V3.03503C8.4542 3.42949 8.13438 3.74932 7.73991 3.74932C7.34545 3.74932 7.02563 3.42949 7.02563 3.03503V2.58895H6.25937C5.34733 2.58895 4.60549 3.33114 4.60549 4.24318V4.71891Z" fill="#9747FF"/>
<path d="M4.96161 8.66537C7.69739 8.66537 9.92291 10.8909 9.92291 13.6267C9.92291 16.3625 7.69739 18.5883 4.96161 18.5883C2.22583 18.5883 -4.29153e-05 16.3625 -4.29153e-05 13.6267C-4.29153e-05 10.8909 2.22583 8.66537 4.96161 8.66537ZM8.49434 13.6267C8.49434 11.6788 6.90951 10.094 4.96161 10.094C3.01336 10.094 1.42853 11.6788 1.42853 13.6267C1.42853 15.5749 3.01336 17.1598 4.96161 17.1598C6.90951 17.1598 8.49434 15.5749 8.49434 13.6267Z" fill="#9747FF"/>
<path d="M2.47867 11.8343C2.75769 11.5553 3.2097 11.5553 3.48872 11.8343L5.51998 13.8656L6.45818 12.9277C6.7372 12.6487 7.18921 12.6487 7.46823 12.9277C7.74724 13.2067 7.74724 13.6591 7.46823 13.9377L6.025 15.3806C5.88549 15.5201 5.70273 15.5899 5.51998 15.5899C5.33722 15.5899 5.15446 15.5201 5.01495 15.3806L2.47867 12.8443C2.19965 12.5653 2.19965 12.1133 2.47867 11.8343Z" fill="#9747FF"/>
</svg>
