<svg width="20" height="18" viewBox="0 0 20 18" fill="none" xmlns="http://www.w3.org/2000/svg">
<path d="M1.82288 1.87907C2.88291 0.816279 4.28807 0.167612 5.78454 0.0502417C7.28101 -0.0671284 8.77012 0.354538 9.98288 1.23907C11.2552 0.292709 12.8389 -0.136417 14.415 0.038109C15.991 0.212635 17.4424 0.977849 18.4769 2.17966C19.5114 3.38146 20.0521 4.93059 19.9901 6.51509C19.9281 8.09958 19.2681 9.60174 18.1429 10.7191L11.9329 16.9391C11.4129 17.4509 10.7125 17.7377 9.98288 17.7377C9.25327 17.7377 8.5529 17.4509 8.03288 16.9391L1.82288 10.7191C0.6553 9.54434 -4.19617e-05 7.95535 -4.19617e-05 6.29907C-4.19617e-05 4.6428 0.6553 3.0538 1.82288 1.87907ZM3.23288 9.33907L9.44288 15.5491C9.51355 15.6204 9.59765 15.6771 9.69034 15.7157C9.78302 15.7544 9.88245 15.7743 9.98288 15.7743C10.0833 15.7743 10.1827 15.7544 10.2754 15.7157C10.3681 15.6771 10.4522 15.6204 10.5229 15.5491L16.7329 9.30907C17.5171 8.50742 17.9563 7.43054 17.9563 6.30907C17.9563 5.18761 17.5171 4.11073 16.7329 3.30907C15.9337 2.52006 14.8559 2.07764 13.7329 2.07764C12.6099 2.07764 11.532 2.52006 10.7329 3.30907C10.6399 3.4028 10.5293 3.47719 10.4075 3.52796C10.2856 3.57873 10.1549 3.60487 10.0229 3.60487C9.89087 3.60487 9.76016 3.57873 9.6383 3.52796C9.51644 3.47719 9.40584 3.4028 9.31288 3.30907C8.51372 2.52006 7.43591 2.07764 6.31288 2.07764C5.18985 2.07764 4.11203 2.52006 3.31288 3.30907C2.51786 4.10022 2.06429 5.17126 2.04934 6.29276C2.03438 7.41425 2.45924 8.49701 3.23288 9.30907V9.33907Z" fill="#9747FF"/>
</svg>
