<svg width="18" height="22" viewBox="0 0 18 22" fill="none" xmlns="http://www.w3.org/2000/svg">
<path d="M14.3481 0.00216902C14.9012 0.197381 14.9663 0.644198 14.9099 1.1691C15.0075 1.1691 15.0813 1.1691 15.155 1.1691C15.7276 1.1691 16.2981 1.16476 16.8707 1.1691C17.3891 1.17561 17.8012 1.55302 17.8077 2.07141C17.8186 2.88696 17.8511 3.70685 17.7774 4.51589C17.5843 6.60683 16.515 8.13598 14.6496 9.09469C13.8211 9.51982 12.9708 9.90807 12.1227 10.2942C11.8299 10.4265 11.6217 10.6325 11.4221 10.8928C11.7085 11.0945 11.7475 11.3917 11.7366 11.7084C11.7301 11.96 11.7366 12.2094 11.7345 12.461C11.728 12.9794 11.4438 13.2614 10.9319 13.2679C10.8148 13.2679 10.6955 13.2679 10.561 13.2679V14.8925C11.1619 14.8925 11.7583 14.8903 12.357 14.8925C12.5088 14.8925 12.665 14.9012 12.8125 14.9315C13.5087 15.0682 14.0336 15.6842 14.0532 16.3934C14.0662 16.8598 14.0597 17.3283 14.0553 17.7946C14.0553 18.0159 13.9208 18.1568 13.7343 18.1525C13.5543 18.1482 13.4328 18.0115 13.4307 17.799C13.4263 17.3673 13.4307 16.9357 13.4307 16.5019C13.4263 15.9163 13.0294 15.5193 12.4416 15.5193C10.0925 15.5193 7.74349 15.5193 5.39444 15.5193C4.79362 15.5193 4.39886 15.9141 4.39669 16.5149C4.39452 17.261 4.39669 18.005 4.39669 18.7815H4.64613C7.90833 18.7815 11.1705 18.7815 14.4327 18.7815C15.0444 18.7815 15.3134 19.0505 15.3134 19.6578C15.3134 19.9918 15.3177 20.328 15.3134 20.6621C15.3068 21.1045 15.0032 21.4147 14.5629 21.4169C10.7996 21.4191 7.03422 21.4191 3.27097 21.4169C2.82849 21.4169 2.52266 21.1067 2.51615 20.6664C2.51182 20.289 2.51182 19.9138 2.51615 19.5363C2.52049 19.0939 2.82632 18.7902 3.26663 18.7815C3.42497 18.7794 3.58548 18.7815 3.76985 18.7815C3.76985 18.6926 3.76985 18.6188 3.76985 18.5451C3.76985 17.8684 3.76985 17.1938 3.76985 16.5171C3.77418 15.5714 4.44441 14.8968 5.3901 14.8925C6.01044 14.8903 6.63078 14.8925 7.2663 14.8925V13.2657C7.11013 13.2657 6.9583 13.2701 6.80864 13.2657C6.41388 13.2505 6.11889 12.9794 6.09937 12.5846C6.08202 12.2094 6.06901 11.8298 6.10588 11.4568C6.1254 11.2572 6.2512 11.0685 6.35965 10.7974C6.22951 10.6911 6.05165 10.485 5.82824 10.3722C4.98883 9.95145 4.12773 9.57404 3.28832 9.15325C1.16269 8.0926 0.07384 6.36607 0.00876949 3.9975C-0.00858265 3.39885 0.00443145 2.79803 0.00876949 2.19938C0.00876949 1.55519 0.394855 1.17127 1.03688 1.1691C1.64855 1.1691 2.26021 1.1691 2.90875 1.1691C2.85886 0.655043 2.91525 0.195212 3.47486 0H14.3503L14.3481 0.00216902ZM8.91259 0.629015C7.19906 0.629015 5.48337 0.629015 3.76985 0.626846C3.60934 0.626846 3.51824 0.657212 3.52692 0.841579C3.56596 1.74606 3.53776 2.65705 3.64838 3.55285C3.98241 6.28798 5.14067 8.6457 7.04506 10.6369C7.10796 10.7019 7.22075 10.754 7.31185 10.7562C8.37684 10.7648 9.444 10.7648 10.509 10.7562C10.6001 10.7562 10.7129 10.7063 10.7758 10.6412C12.3852 8.97323 13.4437 7.00593 13.9772 4.75232C14.2766 3.48778 14.3134 2.20155 14.2961 0.910987C14.2918 0.633353 14.2939 0.631184 14.0141 0.631184C12.3136 0.631184 10.6131 0.631184 8.91259 0.631184V0.629015ZM8.92343 19.4105H7.31402C6.01044 19.4105 4.70686 19.4149 3.40328 19.4062C3.18638 19.4062 3.12348 19.4734 3.13432 19.6817C3.14951 19.9528 3.13866 20.2261 3.13866 20.4972C3.13866 20.6939 3.23988 20.7922 3.44232 20.7922C7.08627 20.7922 10.7324 20.7922 14.3763 20.7922C14.4176 20.7922 14.4609 20.79 14.5021 20.7922C14.6388 20.803 14.6865 20.7358 14.6843 20.6035C14.68 20.2977 14.6843 19.9897 14.6843 19.6838C14.6843 19.5016 14.5904 19.4105 14.4024 19.4105C12.5761 19.4105 10.7497 19.4105 8.92343 19.4105ZM5.13199 9.3181C3.88697 7.40936 3.15385 5.32928 2.94996 3.07133H1.90449C1.89798 3.1017 1.89148 3.11471 1.89148 3.12989C1.89148 3.35981 1.89148 3.58972 1.88931 3.81964C1.86545 5.12322 2.34046 6.19471 3.36207 7.01677C3.5421 7.15993 3.5768 7.34212 3.46618 7.48745C3.34472 7.64579 3.16252 7.65663 2.97165 7.5048C2.15393 6.8606 1.62469 6.03204 1.38176 5.02128C1.20824 4.29899 1.27764 3.56587 1.2668 2.83491C1.26246 2.52907 1.37308 2.4293 1.68759 2.42713C2.08886 2.42713 2.49229 2.42713 2.89573 2.42713V1.80028C2.26238 1.80028 1.65072 1.80028 1.03905 1.80028C0.746235 1.80028 0.642123 1.90874 0.642123 2.21023C0.642123 2.81755 0.631278 3.42271 0.642123 4.03003C0.672489 5.64378 1.30367 6.97339 2.56821 7.98415C3.33387 8.59582 4.26872 8.88647 5.13633 9.32027L5.13199 9.3181ZM12.6845 9.30292C12.691 9.31376 12.6997 9.32461 12.7062 9.33545C13.3114 9.0448 13.9295 8.77584 14.5217 8.457C15.8947 7.71736 16.7514 6.57429 17.0768 5.0473C17.2828 4.07558 17.1635 3.08868 17.1831 2.10829C17.1874 1.91524 17.0551 1.80462 16.8577 1.80028C16.5801 1.79378 16.3003 1.80028 16.0226 1.79812C15.6626 1.79812 15.3025 1.79812 14.9273 1.79812V2.42496C15.3611 2.42496 15.7775 2.42279 16.1961 2.42496C16.4391 2.42496 16.5584 2.53992 16.5605 2.78285C16.5649 3.26437 16.5779 3.74589 16.5519 4.22525C16.4803 5.52449 15.9402 6.59381 14.9425 7.43105C14.4891 7.8128 13.9512 8.04489 13.4241 8.29649C13.3396 8.3377 13.2463 8.39193 13.1964 8.46568C13.0164 8.73897 12.8537 9.02094 12.6845 9.30075V9.30292ZM8.90174 12.6432C9.56329 12.6432 10.227 12.6389 10.8886 12.6454C11.0512 12.6454 11.1141 12.5933 11.1098 12.4285C11.1011 12.1422 11.1055 11.858 11.1098 11.5717C11.1098 11.4394 11.0534 11.3852 10.9211 11.3852C9.58281 11.3873 8.24453 11.3873 6.90625 11.3852C6.77177 11.3852 6.71537 11.4394 6.71754 11.5717C6.71971 11.8515 6.72622 12.1291 6.71537 12.4089C6.7067 12.5955 6.77827 12.6497 6.9583 12.6454C7.60684 12.6367 8.25537 12.641 8.90391 12.641L8.90174 12.6432ZM14.8709 3.06482C14.7407 4.59615 14.3525 6.04288 13.7105 7.46142C13.7907 7.42455 13.8298 7.40936 13.8645 7.38984C15.6669 6.41812 16.0747 4.80221 15.9077 3.06482H14.8687H14.8709ZM9.91033 13.2874H7.92135V14.8795H9.91033V13.2874Z" fill="#9747FF"/>
<path d="M7.22292 3.92374C7.45066 3.90856 7.73263 3.96929 7.88663 3.8565C8.03413 3.74805 8.04714 3.45957 8.11872 3.24918C8.17511 3.08433 8.225 2.91732 8.2814 2.75464C8.38768 2.44664 8.6241 2.26661 8.91475 2.27095C9.20106 2.27529 9.43098 2.44664 9.53292 2.74813C9.64571 3.07783 9.75633 3.40752 9.85393 3.74154C9.89298 3.87169 9.95154 3.9194 10.0882 3.91507C10.4222 3.90639 10.7562 3.90856 11.0924 3.91507C11.4525 3.9194 11.6846 4.07124 11.78 4.35321C11.8798 4.65036 11.7844 4.91281 11.4894 5.13189C11.2139 5.33577 10.9406 5.53749 10.6586 5.73053C10.561 5.79777 10.5393 5.85851 10.5806 5.97129C10.6933 6.29231 10.7953 6.61766 10.8994 6.94301C11.01 7.28789 10.9319 7.56335 10.6803 7.74338C10.4331 7.92124 10.1641 7.90823 9.86912 7.69783C9.59582 7.50479 9.32252 7.31175 9.0579 7.10786C8.95162 7.02761 8.87788 7.01893 8.76942 7.10352C8.5048 7.30958 8.23151 7.50045 7.96038 7.69566C7.66323 7.9104 7.38559 7.92124 7.13182 7.73471C6.88889 7.55468 6.81514 7.28355 6.92142 6.94952C7.02337 6.63068 7.12097 6.31183 7.23593 5.99949C7.28582 5.86284 7.25545 5.7891 7.13615 5.71101C6.85852 5.52448 6.59173 5.32276 6.32277 5.12321C6.0408 4.91498 5.94319 4.65036 6.03863 4.35971C6.12756 4.08208 6.35965 3.92374 6.70018 3.9129C6.8737 3.90856 7.04939 3.9129 7.22292 3.9129C7.22292 3.91724 7.22292 3.92157 7.22292 3.92591V3.92374ZM6.64596 4.53757C6.67415 4.58529 6.67849 4.60048 6.68934 4.60915C6.97565 4.81955 7.26196 5.02777 7.54827 5.23817C7.90616 5.50062 7.97773 5.71969 7.84109 6.14048C7.72613 6.4962 7.61334 6.84975 7.47886 7.2662C7.85193 6.99507 8.17078 6.76082 8.49179 6.53307C8.77376 6.33135 9.04055 6.33135 9.32252 6.52873C9.47652 6.63501 9.62619 6.74997 9.78019 6.85842C9.94937 6.97989 10.1207 7.10135 10.3094 7.23583C10.3094 7.18594 10.3138 7.17293 10.3094 7.15992C10.2075 6.84324 10.1055 6.52439 10.0014 6.20772C9.83658 5.69583 9.89731 5.51146 10.3355 5.19479C10.6131 4.99307 10.8907 4.79135 11.1684 4.58963C10.7649 4.53974 10.3767 4.53974 9.98841 4.54191C9.68041 4.54191 9.4505 4.42045 9.32903 4.12763C9.2965 4.05171 9.27264 3.97146 9.24661 3.89121C9.1425 3.57236 9.03838 3.25352 8.92993 2.92383C8.89523 2.95419 8.88004 2.9607 8.87571 2.97154C8.76726 3.30123 8.6588 3.63092 8.55035 3.96278C8.40286 4.41394 8.22717 4.54191 7.75866 4.54191C7.39861 4.54191 7.03855 4.54191 6.64596 4.54191V4.53757Z" fill="#9747FF"/>
</svg>
