<svg width="18" height="22" viewBox="0 0 18 22" fill="none" xmlns="http://www.w3.org/2000/svg">
<path d="M3.89977 8.46154L0.151716 3.02923C0.0647507 2.90294 0.0130138 2.75438 0.00215149 2.59975C-0.00871086 2.44513 0.021719 2.29039 0.0901203 2.15244C0.158522 2.01448 0.262266 1.8986 0.390024 1.81746C0.517784 1.73631 0.664646 1.69302 0.814583 1.69231H16.3633V0.846154C16.3633 0.62174 16.4495 0.406517 16.603 0.247833C16.7565 0.0891481 16.9646 0 17.1816 0C17.3987 0 17.6068 0.0891481 17.7603 0.247833C17.9138 0.406517 18 0.62174 18 0.846154V21.1538C18 21.3783 17.9138 21.5935 17.7603 21.7522C17.6068 21.9109 17.3987 22 17.1816 22C16.9646 22 16.7565 21.9109 16.603 21.7522C16.4495 21.5935 16.3633 21.3783 16.3633 21.1538V15.2308H0.814583C0.664646 15.2301 0.517784 15.1868 0.390024 15.1056C0.262266 15.0245 0.158522 14.9086 0.0901203 14.7706C0.021719 14.6327 -0.00871086 14.4779 0.00215149 14.3233C0.0130138 14.1687 0.0647507 14.0201 0.151716 13.8938L3.89977 8.46154ZM16.3633 13.5385V3.38462H2.40219L5.56921 7.97077C5.66789 8.11408 5.72092 8.28562 5.72092 8.46154C5.72092 8.63746 5.66789 8.809 5.56921 8.95231L2.40219 13.5385H16.3633Z" fill="#9747FF"/>
</svg>
