<svg width="21" height="21" viewBox="0 0 21 21" fill="none" xmlns="http://www.w3.org/2000/svg">
<path d="M5.64848 9.05772C5.68562 8.99428 5.72895 8.94785 5.77228 8.91226C5.82799 8.86428 5.88525 8.83643 5.91775 8.8194C5.92394 8.81631 5.92858 8.81321 5.93477 8.81167L7.5798 7.86922C8.96948 7.07224 10.4071 6.24741 11.82 5.43495C11.9082 5.38388 11.9965 5.35139 12.0723 5.32044L12.1156 5.30341C12.2889 5.23377 12.4731 5.19818 12.6634 5.19818H12.6743C12.846 5.19818 13.0054 5.22604 13.1525 5.2802L13.1679 5.28484C13.332 5.34829 13.4805 5.42876 13.609 5.52316L13.0317 6.10039C12.9853 6.07563 12.9373 6.05242 12.8847 6.0323C12.8259 6.00909 12.7547 5.99825 12.6774 5.99825H12.6665C12.5783 5.99825 12.4932 6.01373 12.4143 6.04623L12.3632 6.0648C12.3075 6.08801 12.258 6.10658 12.2208 6.12825C10.8064 6.9407 9.36874 7.76554 7.97906 8.56251L7.15422 9.03606C7.24708 9.08558 7.33838 9.1351 7.42968 9.18617C7.52563 9.23879 7.62003 9.2914 7.71288 9.34556C7.89704 9.44925 8.08739 9.55758 8.27464 9.65662C8.35975 9.7015 8.44022 9.75102 8.51605 9.79744C8.58879 9.84078 8.65843 9.88256 8.72652 9.9197C8.74663 9.92898 8.7652 9.93982 8.78532 9.94755L9.11495 9.75876C9.31613 9.64424 9.51576 9.52972 9.71694 9.4152L9.08554 10.045L8.4557 10.6764C8.4526 10.6764 8.45106 10.6733 8.44951 10.6718C8.40618 10.6517 8.36594 10.6316 8.32571 10.6099C8.28702 10.5882 8.24833 10.5666 8.21119 10.5434C8.17405 10.5217 8.13845 10.5 8.10286 10.4784C8.03322 10.4366 7.96513 10.3948 7.89859 10.3607C7.70205 10.2571 7.50706 10.1456 7.31672 10.0389C7.1372 9.93827 6.94995 9.83149 6.76579 9.734C6.58164 9.63495 6.41915 9.6071 6.25356 9.64579L6.24118 9.64888C6.20249 9.65971 6.11738 9.68447 6.01524 9.67519C5.93786 9.669 5.8512 9.64579 5.76299 9.58234L5.46432 9.37033L5.65002 9.05618L5.64848 9.05772Z" fill="#9747FF"/>
<path d="M9.55757 13.1509C10.0652 13.4434 10.5727 13.7343 11.0803 14.0253C11.0772 13.9216 11.0803 13.8132 11.0912 13.7018C11.0912 13.6879 11.0943 13.6724 11.0958 13.6585C11.0958 13.6508 11.0958 13.6446 11.0958 13.6368C11.0958 13.6136 11.0927 13.5873 11.0912 13.561V13.5564C11.0912 13.5316 11.0881 13.5037 11.0881 13.479C11.0881 13.0658 11.0881 12.6541 11.0881 12.2425V12.1404C10.9767 12.0785 10.8668 12.0166 10.7569 11.9547L11.0881 11.6235L11.345 11.3666C11.3868 11.3898 11.4301 11.4146 11.4734 11.4378L11.8882 11.2768V12.2425V12.6634C11.8882 12.9342 11.8882 13.2066 11.8882 13.4774C11.8882 13.5084 11.8912 13.544 11.8928 13.5811C11.8959 13.6043 11.8974 13.626 11.899 13.6477V13.6848L11.8959 13.7219C11.8912 13.756 11.8882 13.79 11.8866 13.821C11.8866 13.8303 11.8866 13.838 11.8866 13.8457C11.8866 13.8659 11.8835 13.8829 11.8835 13.8999C11.8835 13.92 11.8835 13.9386 11.8835 13.9556C11.8835 13.9835 11.8835 14.0113 11.8866 14.0392C11.8866 14.0593 11.8897 14.0779 11.8928 14.098C11.8928 14.1166 11.8959 14.1351 11.9005 14.1522C11.9036 14.1738 11.9083 14.1924 11.9114 14.2141C11.9145 14.228 11.9176 14.2419 11.9206 14.2558C11.9408 14.3363 11.9686 14.4121 12.0073 14.4818C12.0181 14.505 12.0321 14.5267 12.046 14.5499C12.0491 14.5576 12.0537 14.5638 12.0584 14.5715C12.063 14.5777 12.0677 14.5839 12.0739 14.5916C12.08 14.6009 12.0878 14.6133 12.0955 14.6226L12.5536 15.2261L11.7968 15.2648H11.769C11.7055 15.2648 11.6498 15.254 11.6034 15.2385C11.5307 15.2153 11.4781 15.1797 11.4456 15.158C11.4409 15.155 11.4378 15.1519 11.4332 15.1503C10.6145 14.6814 9.79589 14.2094 8.9757 13.739L9.56221 13.1524L9.55757 13.1509ZM4.87474 9.81906C4.90569 9.74942 4.93045 9.69371 4.9583 9.64264C5.15175 9.28671 5.42566 9.04065 5.77231 8.91066C5.8079 8.89673 5.84195 8.8859 5.87909 8.87352L6.06634 8.81781L6.1205 8.8565C6.46096 8.78995 6.80296 8.84876 7.14032 9.02827C7.14497 9.03137 7.14806 9.03292 7.1527 9.03601C7.24556 9.08553 7.33686 9.13505 7.42817 9.18612C7.52411 9.23874 7.61851 9.29135 7.71136 9.34552C7.89552 9.4492 8.08587 9.55753 8.27312 9.65657C8.35823 9.70145 8.4387 9.75097 8.51453 9.7974C8.58727 9.84073 8.6569 9.88251 8.725 9.91965C8.74511 9.92894 8.76368 9.93977 8.7838 9.94751C8.83332 9.97072 8.87975 9.98929 8.92772 10.0017L9.08557 10.045L8.45573 10.6764C8.45573 10.6764 8.44954 10.6764 8.44799 10.6733C8.40466 10.6532 8.36442 10.6331 8.32418 10.6114C8.2855 10.5897 8.24681 10.5681 8.20967 10.5449C8.17253 10.5232 8.13693 10.5015 8.10134 10.4799C8.0317 10.4381 7.96361 10.3963 7.89707 10.3622C7.70053 10.2586 7.50554 10.1471 7.3152 10.0404C7.13568 9.93977 6.94843 9.83299 6.76427 9.7355C6.58012 9.63645 6.41763 9.6086 6.25204 9.64729L6.23966 9.65038C6.20097 9.66121 6.11586 9.68598 6.01372 9.67669C5.86825 9.74478 5.75374 9.8562 5.66243 10.0264C5.64386 10.0574 5.62684 10.0945 5.60517 10.144C5.57577 10.2106 5.5603 10.2802 5.5603 10.3514C5.5603 10.4768 5.57577 10.5758 5.60517 10.6578C5.67636 10.8497 5.79861 10.9936 5.97813 11.0958C6.41453 11.3465 6.84939 11.5956 7.28579 11.8448L6.69773 12.4313C6.32478 12.2177 5.95337 12.0042 5.58041 11.7906C5.23841 11.5956 4.99545 11.3078 4.85617 10.941L4.84843 10.9209C4.78962 10.7522 4.76022 10.5665 4.76022 10.3514C4.76022 10.1673 4.79891 9.98929 4.87474 9.81906ZM11.0865 11.6219V12.1388C10.9751 12.0769 10.8652 12.015 10.7554 11.9531L11.0865 11.6219Z" fill="#9747FF"/>
<path d="M11.3434 11.3666L11.8866 10.8234V12.665C11.9098 12.6511 11.9346 12.6387 11.9578 12.6263C11.981 12.6155 12.0058 12.6031 12.0305 12.5923C12.0491 12.5845 12.0661 12.5768 12.0847 12.5691C12.1048 12.5613 12.1234 12.5551 12.1435 12.5474C12.1946 12.5288 12.2456 12.5133 12.2998 12.5025C12.3725 12.4839 12.4468 12.4716 12.5226 12.4638C12.6526 12.453 12.7795 12.4561 12.9033 12.4747C12.9296 12.4778 12.9559 12.4824 12.9807 12.487C13.0163 12.4948 13.0503 12.5025 13.0844 12.5103C13.1076 12.5164 13.1308 12.5226 13.154 12.5319C13.2097 12.5505 13.2655 12.5706 13.3181 12.5938C13.3335 12.6016 13.349 12.6077 13.3645 12.617C13.3985 12.6325 13.4326 12.6511 13.4635 12.6697C13.4635 11.5276 13.4635 10.3824 13.4635 9.24032L14.2636 8.44025V13.5935C14.2636 13.6307 14.259 13.6632 14.2512 13.6972C14.2141 13.8504 14.0996 13.9727 13.9448 14.0206C13.9015 14.033 13.8582 14.0392 13.8148 14.0392C13.674 14.0392 13.5409 13.9727 13.4543 13.8566C13.4512 13.8535 13.4496 13.8489 13.4465 13.8473C13.4465 13.8442 13.4419 13.8411 13.4403 13.8396C13.3954 13.7699 13.366 13.7034 13.3428 13.6508C13.3335 13.6276 13.3196 13.5951 13.3119 13.5842C13.137 13.3537 12.8755 13.2376 12.5923 13.2639C12.3122 13.2887 12.0785 13.4496 11.9485 13.7049L11.9439 13.7127C11.9268 13.7529 11.9052 13.7885 11.8789 13.821C11.7798 13.9433 11.6204 14.0067 11.4579 13.9789C11.2722 13.9479 11.1314 13.8102 11.0943 13.6322C11.0881 13.609 11.0865 13.5858 11.085 13.5626V13.5579C11.085 13.5332 11.0819 13.5053 11.0819 13.4806C11.0819 13.0674 11.0819 12.6557 11.0819 12.2441V11.6235L11.3388 11.3666H11.3434ZM11.3434 11.3666L11.8866 10.8234V12.665C11.8526 12.6851 11.8185 12.7037 11.7876 12.7269C11.7597 12.7455 11.7318 12.764 11.704 12.7842C11.6282 12.8414 11.5585 12.9064 11.4951 12.9761C11.4765 12.9946 11.4595 13.0132 11.4456 13.0302C11.4409 13.0364 11.4363 13.0411 11.4332 13.0472C11.41 13.0736 11.3883 13.1014 11.3682 13.1308C11.3651 13.1355 11.362 13.1386 11.3604 13.1416C11.3465 13.1618 11.3326 13.1819 11.3218 13.2035C11.3094 13.2206 11.2985 13.236 11.2908 13.2531C11.2722 13.2825 11.2552 13.3134 11.2397 13.3444L11.1299 13.3893L11.102 13.6214C11.102 13.6214 11.102 13.6276 11.102 13.6291C11.0958 13.6059 11.0943 13.5842 11.0927 13.561V13.5564C11.0927 13.5316 11.0896 13.5038 11.0896 13.479C11.0896 13.0658 11.0896 12.6542 11.0896 12.2425V11.622L11.3465 11.3651L11.3434 11.3666Z" fill="#9747FF"/>
<path d="M12.6588 15.644C13.5502 15.644 14.2559 14.9491 14.2667 14.0578C14.2667 13.9974 14.2667 13.9417 14.2636 13.8875C14.2636 13.8659 14.2636 13.8426 14.2621 13.821V13.7931C14.2621 13.7931 14.2621 13.7792 14.2621 13.7715V13.7034L14.2528 13.6925C14.2342 13.5842 14.1847 13.4805 14.112 13.3939C14.1058 13.383 14.0919 13.3536 14.0826 13.332C14.0547 13.2685 14.0176 13.1834 13.9541 13.0998C13.6137 12.651 13.0782 12.4143 12.5227 12.4653C11.9702 12.5164 11.4905 12.8445 11.2367 13.3443L11.1283 13.3892L11.0989 13.6214C11.0246 14.211 11.1407 14.6969 11.4533 15.107L11.4812 15.1441L11.5168 15.1735C11.7814 15.3917 12.1497 15.6424 12.648 15.644H12.6573H12.6588ZM13.4636 13.9015V13.9123C13.4651 13.9603 13.4666 14.0067 13.4666 14.0485C13.4605 14.4957 13.1061 14.8439 12.6588 14.8439H12.6542C12.4669 14.8439 12.2936 14.7681 12.0661 14.5855C11.9238 14.3827 11.865 14.1444 11.8835 13.8473C11.9207 13.7916 11.9392 13.7405 11.9516 13.7111L11.9547 13.7018C12.0847 13.4465 12.3199 13.2855 12.5985 13.2608C12.8817 13.2345 13.1432 13.3521 13.3181 13.5827C13.3243 13.5919 13.3382 13.6244 13.349 13.6492C13.3738 13.7065 13.4063 13.7807 13.4574 13.855C13.4574 13.869 13.4605 13.8844 13.4636 13.9015ZM14.163 13.5641C14.163 13.5641 14.1646 13.5656 14.1661 13.5672L14.163 13.5641Z" fill="#9747FF"/>
<path d="M13.8629 13.7947C13.8629 13.7947 13.8582 13.8102 13.8567 13.8179C13.8567 13.821 13.8613 13.8241 13.8629 13.8287C13.8629 13.8179 13.8629 13.8071 13.8629 13.7947Z" fill="#31A852"/>
<path d="M16.6677 3.05984L17.8605 4.25259L4.28058 17.8325L3.08783 16.6397L16.6677 3.05984Z" fill="#9747FF"/>
<path d="M10.5 1.39278C5.47052 1.39278 1.39278 5.47052 1.39278 10.5C1.39278 15.5295 5.47052 19.6072 10.5 19.6072C15.5295 19.6072 19.6072 15.531 19.6072 10.5C19.6072 5.46898 15.5295 1.39278 10.5 1.39278ZM10.5 0C16.2893 0 21 4.71069 21 10.5C21 16.2893 16.2893 21 10.5 21C4.71069 21 0 16.2893 0 10.5C0 4.71069 4.70914 0 10.5 0Z" fill="#9747FF"/>
</svg>
