<svg width="20" height="20" viewBox="0 0 20 20" fill="none" xmlns="http://www.w3.org/2000/svg">
<path d="M12 5C12.2652 5 12.5196 5.10536 12.7071 5.29289C12.8946 5.48043 13 5.73478 13 6V14C13 14.2652 12.8946 14.5196 12.7071 14.7071C12.5196 14.8946 12.2652 15 12 15C11.7348 15 11.4804 14.8946 11.2929 14.7071C11.1054 14.5196 11 14.2652 11 14V6C11 5.73478 11.1054 5.48043 11.2929 5.29289C11.4804 5.10536 11.7348 5 12 5ZM10 0C11.9778 0 13.9112 0.58649 15.5557 1.6853C17.2002 2.78412 18.4819 4.3459 19.2388 6.17317C19.9957 8.00043 20.1937 10.0111 19.8078 11.9509C19.422 13.8907 18.4696 15.6725 17.0711 17.0711C15.6725 18.4696 13.8907 19.422 11.9509 19.8079C10.0111 20.1937 8.00042 19.9957 6.17316 19.2388C4.3459 18.4819 2.78411 17.2002 1.6853 15.5557C0.586487 13.9112 -3.8147e-06 11.9778 -3.8147e-06 10C-3.8147e-06 8.68678 0.258654 7.38642 0.7612 6.17317C1.26375 4.95991 2.00034 3.85752 2.92893 2.92893C3.85751 2.00035 4.9599 1.26375 6.17316 0.761205C7.38642 0.258658 8.68678 0 10 0ZM10 18C11.5822 18 13.129 17.5308 14.4446 16.6518C15.7602 15.7727 16.7855 14.5233 17.391 13.0615C17.9965 11.5997 18.155 9.99113 17.8463 8.43928C17.5376 6.88743 16.7757 5.46197 15.6568 4.34315C14.538 3.22433 13.1126 2.4624 11.5607 2.15372C10.0089 1.84504 8.40034 2.00346 6.93853 2.60896C5.47672 3.21447 4.22729 4.23984 3.34824 5.55544C2.46919 6.87103 2 8.41775 2 10C2 12.1217 2.84285 14.1566 4.34314 15.6569C5.84343 17.1571 7.87826 18 10 18ZM8 5C8.26521 5 8.51957 5.10536 8.7071 5.29289C8.89464 5.48043 9 5.73478 9 6V14C9 14.2652 8.89464 14.5196 8.7071 14.7071C8.51957 14.8946 8.26521 15 8 15C7.73478 15 7.48042 14.8946 7.29289 14.7071C7.10535 14.5196 7 14.2652 7 14V6C7 5.73478 7.10535 5.48043 7.29289 5.29289C7.48042 5.10536 7.73478 5 8 5Z" fill="#9747FF"/>
</svg>
