<svg width="20" height="20" viewBox="0 0 20 20" fill="none" xmlns="http://www.w3.org/2000/svg">
<path d="M10 4C10.1313 3.99997 10.2614 4.02581 10.3827 4.07605C10.5041 4.12629 10.6143 4.19995 10.7072 4.29282C10.8 4.38568 10.8737 4.49593 10.9239 4.61728C10.9742 4.73862 11 4.86867 11 5V8.26758L12.0977 7.63379C12.3274 7.50134 12.6003 7.46555 12.8564 7.53427C13.1125 7.60299 13.3309 7.7706 13.4634 8.00026C13.596 8.22991 13.6319 8.50281 13.5633 8.75896C13.4947 9.0151 13.3272 9.23353 13.0977 9.36621L10.5 10.8662C10.348 10.954 10.1755 11.0002 9.99995 11.0002C9.8244 11.0002 9.65194 10.954 9.49992 10.8662C9.34789 10.7784 9.22166 10.6521 9.1339 10.5001C9.04615 10.348 8.99996 10.1756 9 10V5C8.99996 4.86867 9.0258 4.73862 9.07605 4.61728C9.12629 4.49593 9.19995 4.38568 9.29281 4.29282C9.38568 4.19995 9.49593 4.12629 9.61727 4.07605C9.73861 4.02581 9.86866 3.99997 10 4ZM10 0C11.9778 0 13.9112 0.58649 15.5557 1.6853C17.2002 2.78412 18.4819 4.3459 19.2388 6.17317C19.9957 8.00043 20.1937 10.0111 19.8078 11.9509C19.422 13.8907 18.4696 15.6725 17.0711 17.0711C15.6725 18.4696 13.8907 19.422 11.9509 19.8079C10.0111 20.1937 8.00042 19.9957 6.17316 19.2388C4.3459 18.4819 2.78411 17.2002 1.6853 15.5557C0.586487 13.9112 -3.8147e-06 11.9778 -3.8147e-06 10C0.00302887 7.34877 1.05757 4.80699 2.93228 2.93228C4.80698 1.05758 7.34876 0.0030331 10 0ZM10 18C11.5822 18 13.129 17.5308 14.4446 16.6518C15.7602 15.7727 16.7855 14.5233 17.391 13.0615C17.9965 11.5997 18.155 9.99113 17.8463 8.43928C17.5376 6.88743 16.7757 5.46197 15.6568 4.34315C14.538 3.22433 13.1126 2.4624 11.5607 2.15372C10.0089 1.84504 8.40034 2.00346 6.93853 2.60896C5.47672 3.21447 4.22729 4.23984 3.34824 5.55544C2.46919 6.87103 2 8.41775 2 10C2.00242 12.121 2.84606 14.1544 4.34582 15.6542C5.84559 17.1539 7.87901 17.9976 10 18Z" fill="#9747FF"/>
</svg>
